PathFileType	4	(X/Y/Z)	C:/Users/opensim2020/Desktop/walking_exp_matlab/subject03_walking07_straight_03.trc																																																																																																																																								
DataRate	CameraRate	NumFrames	NumMarkers	Units	OrigDataRate	OrigDataStartFrame	OrigNumFrames																																																																																																																																				
100	100	4	46	mm	100	2318	306																																																																																																																																				
Frame#	Time	LFHD			RFHD			LBHD			RBHD			C7			T10			CLAV			STRN			RBAK			LSHO			LUPA			LELB			LFRM			LWRA			LWRB			LFIN			RSHO			RUPA			RELB			RFRM			RWRA			RWRB			RFIN			LASI			RASI			LPSI			RPSI			LTHI			LKNE			LTIB			LANK			LHEE			LTOE			RTHI			RKNE			RTIB			RANK			RHEE			RTOE			*39			*40			*41			*42			*43			*44			*45		
		X1	Y1	Z1	X2	Y2	Z2	X3	Y3	Z3	X4	Y4	Z4	X5	Y5	Z5	X6	Y6	Z6	X7	Y7	Z7	X8	Y8	Z8	X9	Y9	Z9	X10	Y10	Z10	X11	Y11	Z11	X12	Y12	Z12	X13	Y13	Z13	X14	Y14	Z14	X15	Y15	Z15	X16	Y16	Z16	X17	Y17	Z17	X18	Y18	Z18	X19	Y19	Z19	X20	Y20	Z20	X21	Y21	Z21	X22	Y22	Z22	X23	Y23	Z23	X24	Y24	Z24	X25	Y25	Z25	X26	Y26	Z26	X27	Y27	Z27	X28	Y28	Z28	X29	Y29	Z29	X30	Y30	Z30	X31	Y31	Z31	X32	Y32	Z32	X33	Y33	Z33	X34	Y34	Z34	X35	Y35	Z35	X36	Y36	Z36	X37	Y37	Z37	X38	Y38	Z38	X39	Y39	Z39	X40	Y40	Z40	X41	Y41	Z41	X42	Y42	Z42	X43	Y43	Z43	X44	Y44	Z44	X45	Y45	Z45	X46	Y46	Z46
																																																																																																																																											
154	1.53	141.14484	1625.5813	1335.53638	142.71606	1635.979	1468.58264	17.86399	1571.23352	1345.02612	23.99228	1581.48083	1475.55554	-1.2396	1422.24341	1400.81946	-39.42002	1110.12024	1406.11877	118.51275	1343.67188	1410.86829	159.67392	1178.19873	1413.55469	-62.12555	1251.00977	1498.85632	88.08758	1375.16455	1252.08313	77.36127	1175.81287	1184.99475	75.43573	1052.58228	1174.01392	93.11151	923.12653	1176.08057	100.09592	803.42987	1208.36682	82.7489	810.76392	1154.38086	84.90981	725.23883	1166.88135	66.37947	1372.78699	1566.56702	77.26191	1153.93262	1645.84546	100.89095	1044.06714	1661.94409	136.27434	911.56177	1664.96167	180.17384	821.88934	1629.55408	149.29497	812.17651	1673.03894	182.03125	744.67657	1662.25525	133.76855	948.4751	1299.2467	116.02606	939.96368	1537.65918	-31.89489	972.14465	1338.1991	-40.7221	970.95319	1486.86536	87.32399	647.64569	1258.71252	103.76131	471.19547	1302.54468	66.95416	279.50742	1301.43982	63.95753	69.86844	1345.85571	24.07003	34.84398	1380.76782	217.31923	34.76472	1375.31653	83.78661	642.17841	1581.61853	129.45074	466.78806	1564.90295	-14.28968	344.10654	1558.73047	-176.3866	206.23242	1508.00146	-222.44862	216.07301	1448.92725	-122.83982	72.6757	1501.8833	NaN	NaN	NaN	52.81997	1680.2627	1384.29297	NaN	NaN	NaN	NaN	NaN	NaN	NaN	NaN	NaN	NaN	NaN	NaN	NaN	NaN	NaN
155	1.54	150.7151	1625.88062	1336.2301	151.92325	1636.25464	1468.93066	27.40751	1571.41882	1345.07092	33.22361	1581.66394	1475.62537	8.14129	1422.59778	1400.78625	-29.97782	1110.33606	1405.67981	127.71741	1343.92615	1410.95056	168.87878	1178.48352	1413.35974	-53.27571	1251.06567	1497.97363	97.53138	1375.41699	1252.19287	90.26016	1176.16284	1184.75415	90.81089	1053.05347	1173.71057	110.85677	923.94745	1175.92029	120.23286	804.32001	1207.30908	103.03832	811.45056	1153.88672	107.87791	726.33734	1166.01733	75.29588	1372.54028	1566.82434	84.55064	1153.4917	1645.64758	107.56979	1043.33679	1661.68872	141.96669	910.63739	1664.7323	185.05179	820.52045	1629.24841	154.12883	811.12256	1672.82959	186.29474	743.45123	1662.01111	142.91693	948.84106	1298.10425	126.05148	941.13422	1537.01086	-22.92469	972.37079	1338.26343	-30.97866	971.42914	1486.76868	95.34598	647.93091	1259.46912	109.3079	471.11969	1303.08997	69.67741	279.72824	1301.64221	64.33138	70.11546	1346.19836	24.12889	35.28477	1381.09912	217.53867	34.69725	1375.43066	100.35923	643.20428	1580.3866	147.99376	469.24939	1564.51379	5.52583	345.48727	1558.5376	-154.11372	204.76685	1508.47546	-201.13316	212.75003	1449.59009	-96.57597	73.2491	1503.56433	NaN	NaN	NaN	66.14594	1683.5365	1386.88257	NaN	NaN	NaN	NaN	NaN	NaN	NaN	NaN	NaN	NaN	NaN	NaN	NaN	NaN	NaN
156	1.55	160.13812	1626.12329	1336.58093	161.12625	1636.41943	1469.30481	36.91261	1571.58179	1345.16919	42.44608	1581.76245	1475.74463	17.3076	1422.91699	1400.85352	-20.67886	1110.56885	1405.36365	136.83562	1344.14868	1411.03479	178.02031	1178.72449	1413.01135	-44.46634	1251.05994	1497.24585	106.79509	1375.76563	1252.31482	102.86755	1176.81262	1184.77002	106.48325	1053.61938	1173.63354	128.69202	925.06403	1175.94482	139.37907	805.99939	1207.58704	123.44672	812.59033	1153.40393	131.16054	727.86121	1165.23547	83.98921	1372.4563	1566.9906	91.82491	1153.13281	1645.55676	114.51292	1042.90686	1661.38782	147.49471	909.80267	1664.46204	189.95593	819.75122	1629.16248	158.74487	810.21149	1672.58398	190.48441	742.38599	1661.89844	151.69716	949.17126	1297.37634	136.08499	942.34576	1536.13306	-13.28273	972.52362	1338.29907	-21.13169	971.9093	1486.85559	103.5788	647.82208	1260.04504	114.91602	470.8252	1303.53174	72.55362	279.90863	1301.90247	64.47673	70.57166	1346.56995	24.33305	35.50045	1381.40808	217.6468	34.58216	1375.54333	115.86584	644.50671	1579.7677	166.31816	471.65594	1563.97668	25.8823	345.98178	1558.01709	-131.19754	202.07878	1509.03235	-179.09683	208.29922	1450.38684	-69.46301	72.93492	1504.66565	NaN	NaN	NaN	71.35387	1680.55481	1384.46887	NaN	NaN	NaN	NaN	NaN	NaN	NaN	NaN	NaN	NaN	NaN	NaN	NaN	NaN	NaN
157	1.56	169.66588	1626.33252	1336.93213	170.3943	1636.48279	1469.78577	46.41191	1571.73938	1345.34912	51.65612	1581.81604	1475.95129	26.40494	1423.05554	1400.93384	-11.4872	1110.70898	1405.15125	145.9259	1344.33716	1411.14258	187.07925	1178.92676	1412.70215	-35.59839	1251.11194	1496.69897	115.9101	1376.18713	1252.49365	115.30516	1177.58398	1184.7168	121.63084	1054.65979	1173.55334	146.49571	926.51477	1176.07007	158.79353	807.84711	1207.79553	144.00996	814.10242	1153.21777	154.59509	729.94312	1164.60425	92.68983	1372.42175	1567.14575	99.17313	1152.9176	1645.5459	121.28053	1042.479	1661.04724	152.91595	909.1145	1664.20044	194.51152	818.61499	1628.91553	163.29568	809.40619	1672.36194	194.5361	741.41663	1661.86353	160.61215	949.40808	1296.24707	145.92296	943.35986	1535.08533	-4.31306	972.73602	1338.6178	-11.35077	972.38348	1487.10364	111.92737	647.55829	1260.51013	120.31168	470.49835	1303.93127	75.4883	280.06805	1302.02917	64.94539	70.58532	1346.7345	24.27002	35.8574	1381.55786	217.87964	34.57455	1375.6062	130.92824	645.89459	1579.59058	184.32617	474.03983	1563.26245	46.4408	345.68866	1557.61194	-107.72762	198.3573	1509.53564	-156.43779	202.71904	1451.24622	-41.40956	71.85382	1505.40613	NaN	NaN	NaN	80.87327	1680.71191	1385.04944	NaN	NaN	NaN	NaN	NaN	NaN	NaN	NaN	NaN	NaN	NaN	NaN	NaN	NaN	NaN
